PathFileType	4	(X/Y/Z)	./resultDataOpenSim/trcMotMarkerGrf/sub09/qtm-13-03.trc
DataRate	CameraRate	NumFrames	NumMarkers	Units	OrigDataRate	OrigDataStartFrame	OrigNumFrames
250.000000	250.000000	9	24	m	250.000000	1	510
Frame#	Time	L.Toe.Tip			R.Toe.Tip			L.Ankle.Lat			R.Ankle.Lat			L.Ankle.Med			R.Ankle.Med			L.Heel			R.Heel			L.Knee.Lat			R.Knee.Lat			L.Knee.Med			R.Knee.Med			L.Thigh.Upper			R.Thigh.Upper			L.ASIS			R.ASIS			V.Sacral			L.Acromium			R.Acromium			C7			L.Elbow			R.Elbow			L.Wrist.Lat			R.Wrist.Lat
		X1	Y1	Z1	X2	Y2	Z2	X3	Y3	Z3	X4	Y4	Z4	X5	Y5	Z5	X6	Y6	Z6	X7	Y7	Z7	X8	Y8	Z8	X9	Y9	Z9	X10	Y10	Z10	X11	Y11	Z11	X12	Y12	Z12	X13	Y13	Z13	X14	Y14	Z14	X15	Y15	Z15	X16	Y16	Z16	X17	Y17	Z17	X18	Y18	Z18	X19	Y19	Z19	X20	Y20	Z20	X21	Y21	Z21	X22	Y22	Z22	X23	Y23	Z23	X24	Y24	Z24

1	0	-1.5167137	0.037351852	-0.019267697	-0.94204451	0.098630225	0.070724287	-1.6685672	0.076489519	-0.053097528	-1.090621	0.070336101	0.092561103	-1.6401933	0.096552436	0.039205185	-1.0813017	0.11932156	0.0060506795	NaN	NaN	NaN	-1.1386408	0.030200172	0.034152225	-1.5199016	0.4678766	-0.12111828	-1.172197	0.52068803	0.15034842	-1.5177363	0.47098056	0.0052448603	-1.1717943	0.50504464	0.022535829	-1.4174446	0.87629539	-0.17341106	-1.3794018	0.86919542	0.19659631	-1.3122088	0.9510796	-0.12094807	-1.3002435	0.95599468	0.11980025	-1.4643967	1.0121584	0.01514695	-1.2863649	1.4006856	-0.16420948	-1.3226363	1.4196176	0.16229722	-1.3654711	1.4630603	-0.0067229188	-1.3849899	1.0381495	-0.23548892	NaN	NaN	NaN	-1.1461944	0.90640132	-0.23264679	-1.3913435	0.85605131	0.31815382
2	0.004	-1.5166075	0.037307247	-0.019311763	-0.92618638	0.10272636	0.071019375	-1.6683122	0.077138045	-0.052977624	-1.0744015	0.070781591	0.092247632	-1.6394464	0.097033865	0.039299408	-1.0660344	0.12011213	0.0057714477	NaN	NaN	NaN	-1.1214704	0.029646425	0.033625851	-1.5169499	0.46752848	-0.12113038	-1.1667178	0.51893017	0.15011196	-1.5148301	0.47074606	0.0052285807	-1.1657156	0.5035386	0.02212281	-1.4124136	0.87528416	-0.17319246	-1.3736082	0.86750436	0.19644896	-1.3069006	0.94974463	-0.12127057	-1.2941744	0.95445517	0.11961386	-1.4600292	1.0107791	0.013053245	-1.280913	1.3994487	-0.16399514	-1.3171546	1.4181707	0.16247463	-1.3604284	1.4618238	-0.0064191908	-1.3789205	1.0366382	-0.23543519	NaN	NaN	NaN	-1.1391618	0.90658737	-0.23239686	-1.3859013	0.85439317	0.31823493
3	0.008	-1.5167044	0.037180779	-0.01910647	-0.91053695	0.10688385	0.071375091	-1.668038	0.077782846	-0.052871643	-1.0584564	0.071293607	0.091888362	-1.6386633	0.097562288	0.039355124	-1.0509442	0.12099563	0.0055050835	NaN	NaN	NaN	-1.1044803	0.029182755	0.033128196	-1.5139157	0.46718776	-0.12117733	-1.1612625	0.51718166	0.14989776	-1.5118104	0.47049087	0.0051900995	-1.1596775	0.50203372	0.021731525	-1.4073834	0.87429365	-0.17299435	-1.3677201	0.86580472	0.19629019	-1.3015782	0.94843247	-0.12158825	-1.2880341	0.95290984	0.1194066	-1.455587	1.0093902	0.011106225	-1.2754417	1.3982247	-0.1637873	-1.3116576	1.4167227	0.16266544	-1.3552148	1.4605848	-0.0060182086	-1.3728472	1.0350894	-0.2353761	NaN	NaN	NaN	-1.1321419	0.90674352	-0.23214696	-1.3805452	0.85274695	0.31831098
4	0.012	-1.5170919	0.036926946	-0.018528348	-0.89535801	0.11111221	0.071760921	-1.6677341	0.078441664	-0.052801816	-1.0429058	0.071927921	0.09148792	-1.6378596	0.098138772	0.039349781	-1.0361356	0.12201391	0.0052547163	NaN	NaN	NaN	-1.0877655	0.028877327	0.032718319	-1.5107642	0.4668603	-0.12126502	-1.1558241	0.5154491	0.14971029	-1.5086484	0.47020709	0.0051229731	-1.1536897	0.50052935	0.021364917	-1.4023405	0.8733297	-0.17282949	-1.3616972	0.86408895	0.19613129	-1.2962197	0.94715739	-0.12189657	-1.281812	0.95135711	0.1191748	-1.4508021	1.007976	0.0097974286	-1.2699263	1.397021	-0.16358023	-1.3061283	1.4152768	0.16287122	-1.3497954	1.4593505	-0.0055334829	-1.3667714	1.0335233	-0.23534477	NaN	NaN	NaN	-1.1251469	0.90685699	-0.23190337	-1.3752544	0.85112055	0.31837215
5	0.016	-1.5176015	0.036606418	-0.017782073	-0.88081674	0.11536712	0.072089819	-1.6673956	0.079147969	-0.052790511	-1.0277855	0.07269999	0.09107384	-1.6370808	0.09874187	0.03928119	-1.0216906	0.12315576	0.0050163297	NaN	NaN	NaN	-1.0713825	0.028757676	0.032477535	-1.5074986	0.46655169	-0.12137926	-1.1503566	0.51374958	0.14953504	-1.5053619	0.46989678	0.0050391394	-1.1477555	0.4990293	0.021015534	-1.3972776	0.87238701	-0.17269043	-1.3555564	0.86236383	0.19599365	-1.2908239	0.94592247	-0.12219701	-1.2755425	0.94980649	0.11893142	-1.4455374	1.0065398	0.0093762461	-1.2643573	1.3958431	-0.16335893	-1.3005614	1.4138398	0.16308862	-1.3442596	1.4581302	-0.0050815633	-1.3607037	1.0320045	-0.23536159	NaN	NaN	NaN	-1.1181994	0.90692746	-0.2316687	-1.369954	0.8495189	0.3184197
6	0.02	-1.5179142	0.036362378	-0.017287092	-0.86686557	0.11958801	0.072300918	-1.6670151	0.079923961	-0.052850228	-1.0131118	0.073589591	0.0906546	-1.6363464	0.099373866	0.03915774	-1.007662	0.12439061	0.0047806073	NaN	NaN	NaN	-1.0553847	0.028823045	0.032440806	-1.5041348	0.46626357	-0.12150815	-1.144807	0.51210591	0.14935945	-1.5019866	0.46956969	0.0049567137	-1.1418801	0.49753757	0.020680202	-1.3921957	0.87146016	-0.17255089	-1.3493131	0.86064818	0.19588508	-1.2853944	0.94472327	-0.12249331	-1.2692433	0.94827631	0.11869106	-1.4399301	1.0051043	0.0095693691	-1.2587415	1.3946914	-0.16311675	-1.2949615	1.4124191	0.16332158	-1.33869	1.4569227	-0.0047365023	-1.3546373	1.0305688	-0.23538153	NaN	NaN	NaN	-1.1113078	0.90695426	-0.23143276	-1.3645979	0.8479428	0.31846627
7	0.024	-1.5178799	0.036285831	-0.017260715	-0.85338172	0.12370355	0.07238214	-1.6665859	0.080765861	-0.052981473	-0.99888491	0.074577579	0.090232048	-1.6356313	0.10006012	0.038988673	-0.99406244	0.12568938	0.0045327662	NaN	NaN	NaN	-1.0398537	0.029066802	0.032517737	-1.5007129	0.46598995	-0.12164817	-1.1391624	0.5105291	0.14919138	-1.4985333	0.46925061	0.0048726185	-1.1360652	0.49605656	0.0203587	-1.3870961	0.87055141	-0.17238933	-1.3429675	0.85895671	0.19580093	-1.2799222	0.94355711	-0.12278323	-1.2629161	0.94678405	0.11845802	-1.4341726	1.0036863	0.010003836	-1.2530975	1.3935601	-0.16286532	-1.2893407	1.4110225	0.16357468	-1.3331034	1.4557241	-0.0044515699	-1.3485561	1.0292008	-0.2353426	NaN	NaN	NaN	-1.1044676	0.90693412	-0.23118323	-1.3591945	0.84639125	0.31851773
8	0.028	-1.5175938	0.036356958	-0.017597462	-0.84030329	0.12763984	0.07235021	-1.6661054	0.081666138	-0.053175473	-0.98501315	0.075682439	0.089851604	-1.6349062	0.10081458	0.038781373	-0.98088764	0.12702969	0.0042554239	NaN	NaN	NaN	-1.0248577	0.02946194	0.032534415	-1.4972486	0.4657198	-0.1218015	-1.1334297	0.50901046	0.14905404	-1.4949359	0.46896506	0.00475512	-1.1302956	0.49459059	0.020052738	-1.3819692	0.8696668	-0.17220094	-1.3365177	0.85729144	0.1957355	-1.2743981	0.94242325	-0.12306652	-1.256569	0.94533631	0.1182246	-1.4283694	1.0022847	0.010481397	-1.2474332	1.3924422	-0.16261578	-1.283698	1.4096545	0.16384342	-1.3274945	1.4545319	-0.0041770128	-1.3424526	1.0278729	-0.23522991	NaN	NaN	NaN	-1.0976761	0.90686641	-0.23092107	-1.3537666	0.84486395	0.31856976
9	0.032	-1.5172091	0.03650842	-0.018098315	-0.82765276	0.13134924	0.072237015	-1.665574	0.082631164	-0.053422931	-0.971253	0.076978288	0.089616983	-1.6341814	0.10162568	0.038535679	-0.96815284	0.12839374	0.0039359428	NaN	NaN	NaN	-1.0104175	0.029947849	0.032370973	-1.4936749	0.46544376	-0.12197409	-1.1276059	0.5075356	0.14896533	-1.4911276	0.46870574	0.0045801372	-1.1245356	0.49315138	0.019774673	-1.3767978	0.86880617	-0.17198467	-1.3299651	0.85565494	0.19568469	-1.2688345	0.94131945	-0.12335505	-1.2502192	0.94393204	0.11798099	-1.4225511	1.0008948	0.010937317	-1.2417374	1.3913379	-0.16235889	-1.2780195	1.4083161	0.16411859	-1.3218773	1.4533453	-0.003949395	-1.3363332	1.026576	-0.23506691	NaN	NaN	NaN	-1.0909388	0.906756	-0.23065697	-1.3483139	0.84336231	0.31861464
